<svg 
 xmlns="http://www.w3.org/2000/svg"
 xmlns:xlink="http://www.w3.org/1999/xlink"
 width="50px" height="48px">
<path fill-rule="evenodd"  fill="currentColor"
 d="M49.407,5.670 L25.333,29.840 C24.939,30.236 24.422,30.434 23.905,30.434 C23.388,30.434 22.871,30.236 22.477,29.840 L15.912,23.248 C15.123,22.457 15.123,21.173 15.912,20.380 C16.700,19.589 17.979,19.589 18.768,20.380 L23.905,25.538 L46.550,2.803 C47.339,2.011 48.618,2.011 49.407,2.803 C50.195,3.595 50.195,4.879 49.407,5.670 ZM31.990,5.781 C29.433,4.636 26.716,4.056 23.917,4.055 C23.913,4.055 23.909,4.055 23.905,4.055 C18.603,4.055 13.618,6.126 9.866,9.888 C6.112,13.653 4.043,18.660 4.040,23.987 C4.034,34.985 12.940,43.937 23.894,43.943 C23.898,43.943 23.901,43.943 23.905,43.943 C29.207,43.943 34.192,41.872 37.944,38.110 C41.698,34.345 43.767,29.338 43.770,24.010 L43.770,21.968 C43.770,20.848 44.675,19.940 45.790,19.940 C46.905,19.940 47.810,20.848 47.810,21.968 L47.810,24.012 C47.806,30.423 45.316,36.449 40.798,40.979 C36.284,45.506 30.285,47.999 23.905,47.999 C23.900,47.999 23.896,47.999 23.891,47.999 C17.506,47.995 11.505,45.495 6.992,40.960 C2.480,36.425 -0.003,30.396 0.000,23.986 C0.004,17.575 2.494,11.549 7.012,7.019 C11.526,2.493 17.525,-0.001 23.905,-0.001 C23.910,-0.001 23.914,-0.001 23.919,-0.001 C27.288,0.001 30.557,0.700 33.634,2.077 C34.653,2.533 35.111,3.731 34.657,4.754 C34.203,5.777 33.009,6.237 31.990,5.781 Z"/>
</svg>