<svg 
 xmlns="http://www.w3.org/2000/svg"
 xmlns:xlink="http://www.w3.org/1999/xlink"
 width="50px" height="50px">
<path fill-rule="evenodd"  fill="currentColor"
 d="M49.202,45.744 L31.155,45.744 L31.155,47.339 L49.202,47.339 C49.643,47.339 50.000,47.697 50.000,48.138 C50.000,48.578 49.643,48.936 49.202,48.936 L31.154,48.936 L31.154,49.201 C31.154,49.642 30.797,49.999 30.357,49.999 L19.643,49.999 C19.203,49.999 18.845,49.642 18.845,49.201 L18.845,48.936 L0.798,48.936 C0.357,48.936 -0.000,48.578 -0.000,48.138 C-0.000,47.697 0.357,47.339 0.798,47.339 L18.845,47.339 L18.845,45.744 L0.798,45.744 C0.357,45.744 -0.000,45.387 -0.000,44.946 C-0.000,44.506 0.357,44.148 0.798,44.148 L18.856,44.148 C18.915,43.766 19.245,43.473 19.643,43.473 L21.737,43.473 L21.737,41.079 C21.737,40.639 22.094,40.281 22.535,40.281 C22.975,40.281 23.333,40.639 23.333,41.079 L23.333,43.473 L24.274,43.473 C24.714,43.473 25.072,43.830 25.072,44.271 C25.072,44.711 24.714,45.069 24.274,45.069 L20.441,45.069 L20.441,48.403 L29.559,48.403 L29.559,45.069 L27.465,45.069 C27.024,45.069 26.667,44.711 26.667,44.271 L26.667,41.079 C26.667,40.639 27.024,40.281 27.465,40.281 C27.906,40.281 28.263,40.639 28.263,41.079 L28.263,43.473 L30.357,43.473 C30.755,43.473 31.085,43.766 31.144,44.148 L49.202,44.148 C49.643,44.148 50.000,44.506 50.000,44.946 C50.000,45.387 49.643,45.744 49.202,45.744 ZM47.644,38.686 L2.356,38.686 C1.057,38.686 -0.000,37.629 -0.000,36.329 L-0.000,29.210 C-0.000,27.911 1.057,26.854 2.356,26.854 L47.644,26.854 C48.943,26.854 50.000,27.911 50.000,29.210 L50.000,36.329 C50.000,37.629 48.943,38.686 47.644,38.686 ZM48.404,29.210 C48.404,28.791 48.063,28.450 47.644,28.450 L2.356,28.450 C1.937,28.450 1.596,28.791 1.596,29.210 L1.596,36.329 C1.596,36.749 1.937,37.090 2.356,37.090 L47.644,37.090 C48.063,37.090 48.404,36.749 48.404,36.329 L48.404,29.210 ZM44.084,35.163 C42.764,35.163 41.691,34.089 41.691,32.770 C41.691,31.450 42.764,30.376 44.084,30.376 C45.404,30.376 46.478,31.450 46.478,32.770 C46.478,34.089 45.404,35.163 44.084,35.163 ZM44.084,31.972 C43.644,31.972 43.286,32.329 43.286,32.770 C43.286,33.210 43.644,33.567 44.084,33.567 C44.524,33.567 44.882,33.210 44.882,32.770 C44.882,32.329 44.524,31.972 44.084,31.972 ZM37.040,35.163 C35.720,35.163 34.646,34.089 34.646,32.770 C34.646,31.450 35.720,30.376 37.040,30.376 C38.359,30.376 39.433,31.450 39.433,32.770 C39.433,34.089 38.359,35.163 37.040,35.163 ZM37.040,31.972 C36.600,31.972 36.242,32.329 36.242,32.770 C36.242,33.210 36.600,33.567 37.040,33.567 C37.480,33.567 37.838,33.210 37.838,32.770 C37.838,32.329 37.480,31.972 37.040,31.972 ZM30.326,33.567 L5.916,33.567 C5.475,33.567 5.118,33.211 5.118,32.770 C5.118,32.329 5.475,31.972 5.916,31.972 L30.326,31.972 C30.767,31.972 31.124,32.329 31.124,32.770 C31.124,33.211 30.767,33.567 30.326,33.567 ZM47.644,25.258 L2.356,25.258 C1.057,25.258 -0.000,24.201 -0.000,22.902 L-0.000,15.782 C-0.000,14.484 1.057,13.427 2.356,13.427 L47.644,13.427 C48.943,13.427 50.000,14.484 50.000,15.782 L50.000,22.902 C50.000,24.201 48.943,25.258 47.644,25.258 ZM48.404,15.782 C48.404,15.363 48.063,15.022 47.644,15.022 L2.356,15.022 C1.937,15.022 1.596,15.363 1.596,15.782 L1.596,22.902 C1.596,23.321 1.937,23.662 2.356,23.662 L47.644,23.662 C48.063,23.662 48.404,23.321 48.404,22.902 L48.404,15.782 ZM44.084,21.736 C42.764,21.736 41.691,20.662 41.691,19.342 C41.691,18.023 42.764,16.949 44.084,16.949 C45.404,16.949 46.478,18.023 46.478,19.342 C46.478,20.662 45.404,21.736 44.084,21.736 ZM44.084,18.544 C43.644,18.544 43.286,18.902 43.286,19.342 C43.286,19.782 43.644,20.140 44.084,20.140 C44.524,20.140 44.882,19.782 44.882,19.342 C44.882,18.902 44.524,18.544 44.084,18.544 ZM37.040,21.736 C35.720,21.736 34.646,20.662 34.646,19.342 C34.646,18.023 35.720,16.949 37.040,16.949 C38.359,16.949 39.433,18.023 39.433,19.342 C39.433,20.662 38.359,21.736 37.040,21.736 ZM37.040,18.544 C36.600,18.544 36.242,18.902 36.242,19.342 C36.242,19.782 36.600,20.140 37.040,20.140 C37.480,20.140 37.838,19.782 37.838,19.342 C37.838,18.902 37.480,18.544 37.040,18.544 ZM30.326,20.140 L5.916,20.140 C5.475,20.140 5.118,19.783 5.118,19.342 C5.118,18.901 5.475,18.544 5.916,18.544 L30.326,18.544 C30.767,18.544 31.124,18.901 31.124,19.342 C31.124,19.783 30.767,20.140 30.326,20.140 ZM47.644,11.830 L2.356,11.830 C1.057,11.830 -0.000,10.774 -0.000,9.475 L-0.000,2.355 C-0.000,1.056 1.057,-0.001 2.356,-0.001 L47.644,-0.001 C48.943,-0.001 50.000,1.056 50.000,2.355 L50.000,9.475 C50.000,10.773 48.943,11.830 47.644,11.830 ZM48.404,2.355 C48.404,1.936 48.063,1.595 47.644,1.595 L2.356,1.595 C1.937,1.595 1.596,1.936 1.596,2.355 L1.596,9.475 C1.596,9.894 1.937,10.235 2.356,10.235 L47.644,10.235 C48.063,10.235 48.404,9.894 48.404,9.475 L48.404,2.355 ZM44.084,8.309 C42.764,8.309 41.691,7.234 41.691,5.915 C41.691,4.595 42.764,3.521 44.084,3.521 C45.404,3.521 46.478,4.595 46.478,5.915 C46.478,7.234 45.404,8.309 44.084,8.309 ZM44.084,5.117 C43.644,5.117 43.286,5.474 43.286,5.915 C43.286,6.355 43.644,6.712 44.084,6.712 C44.524,6.712 44.882,6.355 44.882,5.915 C44.882,5.474 44.524,5.117 44.084,5.117 ZM37.040,8.309 C35.720,8.309 34.646,7.234 34.646,5.915 C34.646,4.595 35.720,3.521 37.040,3.521 C38.359,3.521 39.433,4.595 39.433,5.915 C39.433,7.234 38.359,8.309 37.040,8.309 ZM37.040,5.117 C36.600,5.117 36.242,5.474 36.242,5.915 C36.242,6.355 36.600,6.712 37.040,6.712 C37.480,6.712 37.838,6.355 37.838,5.915 C37.838,5.474 37.480,5.117 37.040,5.117 ZM30.326,6.712 L5.916,6.712 C5.475,6.712 5.118,6.356 5.118,5.915 C5.118,5.474 5.475,5.117 5.916,5.117 L30.326,5.117 C30.767,5.117 31.124,5.474 31.124,5.915 C31.124,6.356 30.767,6.712 30.326,6.712 Z"/>
</svg>