<svg 
 xmlns="http://www.w3.org/2000/svg"
 xmlns:xlink="http://www.w3.org/1999/xlink"
 width="37px" height="50px">
<path fill-rule="evenodd"  fill="currentColor"
 d="M-0.000,49.999 L-0.000,13.558 L12.614,13.558 C13.079,13.558 13.455,13.937 13.455,14.406 C13.455,14.874 13.079,15.253 12.614,15.253 L1.682,15.253 L1.682,48.304 L35.318,48.304 L35.318,15.253 L24.386,15.253 C23.921,15.253 23.545,14.874 23.545,14.406 C23.545,13.937 23.921,13.558 24.386,13.558 L37.000,13.558 L37.000,49.999 L-0.000,49.999 ZM27.486,23.958 C27.815,24.290 27.815,24.826 27.486,25.157 L19.168,33.539 C19.015,33.751 18.780,33.897 18.500,33.897 C18.493,33.897 18.488,33.894 18.482,33.894 C18.476,33.894 18.470,33.897 18.465,33.897 C18.241,33.897 18.027,33.809 17.871,33.649 L9.480,25.192 C9.151,24.860 9.151,24.324 9.480,23.993 C9.808,23.662 10.340,23.662 10.669,23.993 L17.659,31.040 L17.659,0.846 C17.659,0.378 18.035,-0.001 18.500,-0.001 C18.965,-0.001 19.341,0.378 19.341,0.846 L19.341,30.969 L26.297,23.958 C26.626,23.627 27.157,23.627 27.486,23.958 Z"/>
</svg>