<svg 
 xmlns="http://www.w3.org/2000/svg"
 xmlns:xlink="http://www.w3.org/1999/xlink"
 width="50px" height="53px">
<path fill-rule="evenodd"  fill="currentColor"
 d="M50.000,27.382 L50.000,35.332 C50.000,38.795 49.048,41.923 47.285,44.458 L47.285,50.349 C47.285,51.851 46.147,52.999 44.658,52.999 L2.627,52.999 C1.226,52.999 -0.000,51.851 -0.000,50.349 L-0.000,39.749 C-0.000,38.629 0.715,37.622 1.751,37.250 L1.751,34.295 C0.752,33.935 0.000,32.975 0.000,31.799 L0.000,21.199 C0.000,20.080 0.715,19.071 1.751,18.701 L1.751,15.745 C0.752,15.385 0.000,14.425 0.000,13.249 L0.000,2.649 C0.000,1.236 1.138,-0.001 2.627,-0.001 L44.659,-0.001 C46.060,-0.001 47.285,1.147 47.285,2.649 L47.285,13.249 C47.285,14.438 46.571,15.405 45.534,15.757 L45.534,18.703 C46.533,19.064 47.285,20.023 47.285,21.199 L47.285,26.164 C47.893,26.305 48.534,26.420 49.212,26.499 C49.650,26.588 50.000,26.940 50.000,27.382 L50.000,27.382 ZM1.751,39.749 L1.751,50.349 C1.751,50.791 2.101,51.232 2.627,51.232 L44.658,51.232 C45.096,51.232 45.534,50.879 45.534,50.349 L45.534,46.523 C45.174,46.873 44.795,47.208 44.396,47.523 C43.345,48.405 42.119,48.847 40.981,49.290 L40.631,49.378 C40.570,49.408 40.521,49.427 40.477,49.440 L40.280,49.554 L39.790,49.342 L39.580,49.290 C38.441,48.847 37.303,48.405 36.165,47.523 C33.513,45.382 31.716,42.381 30.998,38.865 L2.627,38.865 C2.189,38.865 1.751,39.219 1.751,39.749 ZM30.734,37.099 C30.732,37.081 30.731,37.063 30.729,37.045 C30.649,36.445 30.648,35.847 30.648,35.332 L30.648,34.449 L3.503,34.449 L3.503,37.099 L30.734,37.099 ZM45.534,2.649 C45.534,2.208 45.184,1.766 44.658,1.766 L2.627,1.766 C2.101,1.766 1.751,2.119 1.751,2.649 L1.751,13.249 C1.751,13.690 2.101,14.133 2.627,14.133 L44.658,14.133 C45.096,14.133 45.534,13.779 45.534,13.249 L45.534,2.649 ZM3.503,15.899 L3.503,18.549 L43.783,18.549 L43.783,15.899 L3.503,15.899 ZM45.622,21.199 C45.622,20.757 45.271,20.316 44.746,20.316 L2.627,20.316 C2.189,20.316 1.751,20.669 1.751,21.199 L1.751,31.799 C1.751,32.241 2.101,32.682 2.627,32.682 L30.648,32.682 L30.648,27.382 L30.648,26.588 L31.436,26.499 C35.201,26.057 37.741,24.556 39.842,23.142 L40.368,22.789 L40.893,23.142 C41.900,23.868 43.143,24.652 44.622,25.301 C44.943,25.436 45.276,25.564 45.622,25.683 L45.622,21.199 ZM48.161,28.177 C44.746,27.648 42.295,26.234 40.280,24.909 C39.777,25.240 39.246,25.571 38.680,25.892 C38.396,26.052 38.104,26.209 37.802,26.363 C37.651,26.439 37.498,26.514 37.342,26.589 C37.029,26.738 36.707,26.882 36.373,27.019 C35.704,27.295 34.990,27.545 34.222,27.760 C33.646,27.920 33.040,28.061 32.399,28.177 L32.399,32.682 L32.399,34.449 L32.399,35.332 C32.399,36.020 32.465,36.708 32.539,37.453 C32.869,39.920 33.777,42.156 35.194,43.985 C35.807,44.767 36.513,45.477 37.303,46.109 C37.577,46.330 37.859,46.516 38.152,46.681 C38.446,46.846 38.750,46.991 39.069,47.128 C39.133,47.156 39.197,47.182 39.262,47.209 C39.586,47.343 39.925,47.473 40.280,47.611 C40.609,47.473 40.937,47.343 41.260,47.209 C41.325,47.182 41.389,47.156 41.453,47.128 C41.774,46.991 42.088,46.846 42.391,46.681 C42.693,46.516 42.984,46.330 43.258,46.109 C44.133,45.402 45.009,44.519 45.709,43.459 L46.289,42.615 C47.510,40.517 48.161,38.024 48.161,35.332 L48.161,35.332 L48.161,28.177 ZM39.842,30.739 L36.778,32.329 L36.778,37.982 C36.778,38.513 36.427,38.865 35.902,38.865 C35.377,38.865 35.026,38.513 35.026,37.982 L35.026,31.799 C35.026,31.445 35.201,31.181 35.552,31.004 L39.054,29.238 C39.492,29.061 40.017,29.238 40.193,29.591 C40.368,29.944 40.193,30.563 39.842,30.739 ZM27.145,30.032 C26.620,30.032 26.270,29.679 26.270,29.149 C26.270,28.619 26.620,28.266 27.145,28.266 C27.671,28.266 28.021,28.619 28.021,29.149 C28.021,29.679 27.671,30.032 27.145,30.032 ZM27.145,24.732 L20.140,24.732 C19.615,24.732 19.264,24.379 19.264,23.849 C19.264,23.319 19.615,22.966 20.140,22.966 L27.145,22.966 C27.671,22.966 28.021,23.319 28.021,23.849 C28.021,24.379 27.671,24.732 27.145,24.732 ZM14.886,30.032 L5.254,30.032 C4.728,30.032 4.378,29.679 4.378,29.149 L4.378,23.849 C4.378,23.319 4.728,22.966 5.254,22.966 L14.886,22.966 C15.412,22.966 15.762,23.319 15.762,23.849 L15.762,29.149 C15.762,29.679 15.412,30.032 14.886,30.032 ZM14.011,24.732 L6.130,24.732 L6.130,28.265 L14.011,28.265 L14.011,24.732 ZM20.140,28.266 C20.666,28.266 21.016,28.619 21.016,29.149 C21.016,29.679 20.666,30.032 20.140,30.032 C19.615,30.032 19.264,29.679 19.264,29.149 C19.264,28.619 19.615,28.266 20.140,28.266 ZM21.891,25.615 C22.417,25.615 22.767,25.969 22.767,26.499 C22.767,27.029 22.417,27.382 21.891,27.382 C21.366,27.382 21.016,27.029 21.016,26.499 C21.016,25.969 21.366,25.615 21.891,25.615 ZM23.643,28.266 C24.168,28.266 24.518,28.619 24.518,29.149 C24.518,29.679 24.168,30.032 23.643,30.032 C23.117,30.032 22.767,29.679 22.767,29.149 C22.767,28.619 23.117,28.266 23.643,28.266 ZM25.394,25.615 C25.919,25.615 26.270,25.969 26.270,26.499 C26.270,27.029 25.919,27.382 25.394,27.382 C24.869,27.382 24.518,27.029 24.518,26.499 C24.518,25.969 24.869,25.615 25.394,25.615 Z"/>
</svg>