<svg 
 xmlns="http://www.w3.org/2000/svg"
 xmlns:xlink="http://www.w3.org/1999/xlink"
 width="10px" height="10px">
<path fill-rule="evenodd"  fill="rgb(0, 0, 0)"
 d="M9.583,4.583 L5.417,4.583 L5.417,0.417 C5.417,0.186 5.230,-0.000 5.000,-0.000 C4.770,-0.000 4.583,0.186 4.583,0.417 L4.583,4.583 L0.417,4.583 C0.186,4.583 -0.000,4.769 -0.000,5.000 C-0.000,5.230 0.186,5.416 0.417,5.416 L4.583,5.416 L4.583,9.583 C4.583,9.813 4.770,10.000 5.000,10.000 C5.230,10.000 5.417,9.813 5.417,9.583 L5.417,5.416 L9.583,5.416 C9.813,5.416 10.000,5.230 10.000,5.000 C10.000,4.769 9.813,4.583 9.583,4.583 Z"/>
</svg>