<svg 
 xmlns="http://www.w3.org/2000/svg"
 xmlns:xlink="http://www.w3.org/1999/xlink"
 width="49px" height="50px">
<path fill-rule="evenodd"  fill="currentColor"
 d="M41.824,40.699 C37.567,44.841 32.019,47.269 26.063,47.632 L27.428,48.960 L26.361,49.999 L23.225,46.947 L26.361,43.896 L27.428,44.934 L26.176,46.153 C29.529,45.916 32.685,44.978 35.489,43.487 L33.926,40.899 L35.227,40.154 L36.789,42.741 C39.644,40.976 42.075,38.616 43.895,35.842 L41.241,34.316 L42.009,33.052 L44.664,34.579 C46.351,31.590 47.357,28.189 47.477,24.574 L44.389,24.574 L44.389,23.106 L47.477,23.106 C47.357,19.508 46.362,16.123 44.690,13.146 L42.030,14.667 L41.265,13.401 L43.923,11.881 C42.109,9.103 39.685,6.738 36.833,4.967 L35.266,7.549 L33.966,6.802 L35.535,4.218 C32.465,2.576 28.970,1.598 25.255,1.481 L25.255,4.486 L23.745,4.486 L23.745,1.481 C20.049,1.597 16.570,2.566 13.511,4.193 L15.074,6.781 L13.773,7.525 L12.211,4.940 C9.356,6.704 6.925,9.063 5.105,11.838 L7.759,13.364 L6.992,14.628 L4.336,13.101 C2.649,16.089 1.643,19.490 1.523,23.106 L4.611,23.106 L4.611,24.574 L1.522,24.574 C1.620,27.547 2.307,30.417 3.571,33.115 L2.198,33.724 C0.740,30.612 -0.000,27.287 -0.000,23.840 C-0.000,17.472 2.548,11.485 7.176,6.982 C11.803,2.478 17.956,-0.001 24.500,-0.001 C31.044,-0.001 37.197,2.478 41.824,6.982 C46.452,11.485 49.000,17.472 49.000,23.840 C49.000,30.208 46.452,36.195 41.824,40.699 ZM8.676,29.463 L10.091,28.951 L11.708,33.186 L10.294,33.698 L8.676,29.463 ZM1.848,44.205 C2.054,43.847 2.332,43.514 2.682,43.208 C3.033,42.903 3.474,42.602 4.006,42.309 C4.574,42.002 5.048,41.750 5.429,41.549 C5.810,41.350 6.112,41.173 6.336,41.020 C6.559,40.867 6.719,40.729 6.816,40.605 C6.913,40.482 6.961,40.338 6.961,40.173 C6.961,39.844 6.840,39.579 6.599,39.379 C6.357,39.180 6.012,39.080 5.565,39.080 C5.057,39.080 4.616,39.200 4.242,39.441 C3.867,39.682 3.504,39.997 3.154,40.385 L1.304,38.303 C1.497,38.091 1.757,37.885 2.084,37.685 C2.410,37.486 2.779,37.307 3.190,37.147 C3.601,36.988 4.051,36.862 4.541,36.768 C5.030,36.674 5.541,36.627 6.073,36.627 C7.379,36.627 8.379,36.903 9.074,37.456 C9.769,38.009 10.117,38.756 10.117,39.697 C10.117,40.085 10.053,40.432 9.926,40.738 C9.799,41.044 9.633,41.318 9.427,41.558 C9.222,41.800 8.992,42.011 8.738,42.194 C8.485,42.376 8.225,42.544 7.959,42.697 C7.777,42.802 7.560,42.926 7.306,43.067 C7.052,43.208 6.801,43.352 6.553,43.499 C6.305,43.646 6.076,43.794 5.864,43.941 C5.653,44.088 5.493,44.220 5.384,44.337 L10.316,44.337 L10.316,46.878 L1.286,46.878 C1.286,46.326 1.328,45.831 1.413,45.396 C1.497,44.961 1.642,44.564 1.848,44.205 ZM18.089,33.415 L20.022,29.307 L21.394,29.919 L19.461,34.026 L18.089,33.415 ZM19.665,36.803 L19.665,44.161 L21.261,44.161 L21.261,46.702 L19.665,46.702 L19.665,49.119 L16.764,49.119 L16.764,46.702 L11.777,46.702 L11.777,44.179 L17.689,36.803 L19.665,36.803 ZM17.108,41.038 L14.642,44.161 L17.108,44.161 L17.108,41.038 ZM28.684,38.381 L24.332,39.955 L23.806,38.579 L28.158,37.005 L28.684,38.381 ZM23.745,20.925 L23.745,7.744 L25.254,7.744 L25.254,20.926 C26.352,21.195 27.218,22.038 27.495,23.106 L36.474,23.106 L36.474,24.574 L27.495,24.574 C27.157,25.877 25.943,26.845 24.500,26.845 C22.797,26.845 21.411,25.497 21.411,23.840 C21.411,22.436 22.406,21.254 23.745,20.925 ZM24.500,25.377 C25.371,25.377 26.079,24.688 26.079,23.840 C26.079,22.993 25.371,22.303 24.500,22.303 C23.629,22.303 22.921,22.993 22.921,23.840 C22.921,24.688 23.629,25.377 24.500,25.377 Z"/>
</svg>