<svg 
 xmlns="http://www.w3.org/2000/svg"
 xmlns:xlink="http://www.w3.org/1999/xlink"
 width="50px" height="48px">
<path fill-rule="evenodd"  fill="currentColor"
 d="M25.000,26.112 C27.563,26.112 29.648,28.204 29.648,30.774 C29.648,32.214 28.970,33.581 27.849,34.457 L29.626,41.588 C29.740,42.046 29.383,42.503 28.914,42.503 L21.086,42.503 C20.617,42.503 20.260,42.046 20.374,41.588 L22.151,34.457 C21.030,33.581 20.352,32.215 20.352,30.774 C20.352,28.204 22.437,26.112 25.000,26.112 ZM23.365,33.510 C23.642,33.677 23.777,34.006 23.699,34.320 L22.026,41.030 L27.974,41.030 L26.301,34.320 C26.223,34.006 26.359,33.677 26.635,33.510 C27.603,32.927 28.180,31.905 28.180,30.774 C28.180,29.015 26.753,27.584 25.000,27.584 C23.247,27.584 21.820,29.015 21.820,30.774 C21.820,31.905 22.397,32.927 23.365,33.510 ZM39.090,47.999 L20.075,47.999 C19.670,47.999 19.341,47.669 19.341,47.263 C19.341,46.856 19.670,46.527 20.075,46.527 L39.090,46.527 C44.297,46.527 48.532,42.277 48.532,37.056 C48.532,31.833 44.297,27.584 39.090,27.584 C37.565,27.584 36.050,27.958 34.708,28.665 C34.119,28.975 33.441,28.364 33.684,27.744 C34.187,26.459 34.442,25.101 34.442,23.708 C34.442,17.620 29.504,12.667 23.434,12.667 C17.365,12.667 12.427,17.620 12.427,23.708 L12.427,23.734 C12.427,24.122 12.127,24.443 11.741,24.469 C5.980,24.849 1.468,29.688 1.468,35.485 C1.468,41.573 6.406,46.527 12.476,46.527 L16.389,46.527 C16.795,46.527 17.123,46.856 17.123,47.263 C17.123,47.670 16.795,47.999 16.389,47.999 L12.476,47.999 C5.596,47.999 -0.000,42.385 -0.000,35.485 C-0.000,29.141 4.768,23.810 10.975,23.062 C11.311,16.461 16.771,11.194 23.434,11.194 C30.314,11.194 35.910,16.808 35.910,23.708 C35.910,24.727 35.789,25.729 35.550,26.704 C36.685,26.314 37.885,26.112 39.090,26.112 C45.106,26.112 50.000,31.021 50.000,37.056 C50.000,43.090 45.106,47.999 39.090,47.999 ZM43.977,9.157 C41.799,5.381 38.150,2.571 33.965,1.450 C33.574,1.344 33.341,0.941 33.446,0.548 C33.550,0.156 33.953,-0.077 34.344,0.027 C38.902,1.250 42.876,4.308 45.248,8.420 C45.433,8.740 45.346,9.161 45.049,9.380 C44.701,9.638 44.193,9.531 43.977,9.157 ZM41.180,10.776 C41.365,11.095 41.278,11.517 40.981,11.736 C40.633,11.993 40.125,11.887 39.910,11.513 C38.352,8.812 35.742,6.803 32.749,6.001 C32.358,5.896 32.125,5.492 32.230,5.100 C32.335,4.707 32.737,4.474 33.128,4.579 C36.494,5.481 39.429,7.740 41.180,10.776 ZM37.110,13.133 C37.295,13.452 37.208,13.874 36.911,14.093 C36.563,14.350 36.056,14.244 35.840,13.870 C34.902,12.244 33.332,11.035 31.533,10.553 C31.142,10.448 30.909,10.044 31.014,9.652 C31.119,9.259 31.521,9.026 31.912,9.131 C34.085,9.713 35.979,11.172 37.110,13.133 Z"/>
</svg>