<svg 
 xmlns="http://www.w3.org/2000/svg"
 xmlns:xlink="http://www.w3.org/1999/xlink"
 width="40px" height="40px">
<path fill-rule="evenodd"  fill="currentColor"
 d="M20.780,39.999 C31.448,39.588 40.000,30.779 40.000,20.007 C40.000,14.394 37.620,9.004 33.472,5.219 C33.152,4.928 32.657,4.950 32.365,5.271 C32.074,5.590 32.096,6.085 32.416,6.377 C33.852,7.687 35.058,9.206 36.004,10.865 L31.859,10.865 C31.254,9.090 30.469,7.445 29.518,5.985 C28.747,4.802 27.894,3.783 26.979,2.938 C27.889,3.310 28.772,3.754 29.616,4.271 C29.985,4.498 30.468,4.382 30.693,4.013 C30.920,3.644 30.804,3.161 30.435,2.936 C27.302,1.014 23.693,-0.001 20.000,-0.001 C8.972,-0.001 -0.000,8.975 -0.000,20.007 C-0.000,30.779 8.552,39.588 19.220,39.999 M23.193,37.753 C24.436,35.782 25.355,32.691 25.928,29.149 L30.199,29.149 C29.664,30.607 28.996,31.960 28.206,33.173 C26.776,35.366 25.058,36.922 23.193,37.753 ZM25.060,20.791 C25.031,23.165 24.870,25.460 24.589,27.583 L15.411,27.583 C15.130,25.460 14.969,23.165 14.940,20.791 L25.060,20.791 L25.060,20.791 ZM14.940,19.224 C14.969,16.849 15.130,14.554 15.411,12.432 L24.589,12.432 C24.870,14.554 25.031,16.849 25.060,19.224 L14.940,19.224 ZM26.156,27.583 C26.439,25.396 26.597,23.085 26.626,20.791 L31.738,20.791 C31.675,23.168 31.325,25.464 30.712,27.583 L26.156,27.583 ZM36.803,27.588 C36.772,27.585 36.742,27.583 36.710,27.583 L32.338,27.583 C32.916,25.446 33.245,23.153 33.305,20.791 L38.415,20.791 C38.314,23.204 37.748,25.500 36.803,27.588 ZM36.710,12.432 C36.740,12.432 36.769,12.430 36.798,12.427 C37.757,14.553 38.314,16.860 38.415,19.224 L33.305,19.224 C33.245,16.861 32.916,14.570 32.338,12.432 L36.710,12.432 ZM36.004,29.149 C33.972,32.695 30.796,35.505 26.984,37.072 C27.898,36.227 28.748,35.209 29.518,34.029 C30.469,32.569 31.254,30.924 31.859,29.149 L36.004,29.149 ZM31.738,19.224 L26.626,19.224 C26.597,16.930 26.439,14.618 26.156,12.432 L30.712,12.432 C31.325,14.551 31.675,16.846 31.738,19.224 ZM28.206,6.842 C28.996,8.055 29.664,9.408 30.199,10.865 L25.928,10.865 C25.355,7.324 24.436,4.233 23.193,2.262 C25.058,3.092 26.776,4.649 28.206,6.842 ZM20.000,1.566 C20.890,1.566 22.248,2.900 23.386,6.641 C23.772,7.912 24.096,9.333 24.354,10.865 L15.646,10.865 C15.903,9.333 16.227,7.912 16.614,6.641 C17.752,2.900 19.109,1.566 20.000,1.566 ZM16.806,2.262 C15.564,4.233 14.645,7.324 14.072,10.865 L9.801,10.865 C10.336,9.408 11.003,8.055 11.794,6.842 C13.223,4.649 14.942,3.092 16.806,2.262 ZM13.373,19.224 L8.262,19.224 C8.325,16.846 8.675,14.551 9.288,12.432 L13.844,12.432 C13.561,14.618 13.403,16.930 13.373,19.224 ZM13.844,27.583 L9.288,27.583 C8.675,25.464 8.325,23.168 8.262,20.791 L13.374,20.791 C13.403,23.085 13.561,25.396 13.844,27.583 ZM13.015,2.942 C12.102,3.788 11.251,4.805 10.482,5.985 C9.530,7.445 8.746,9.090 8.141,10.865 L3.996,10.865 C6.027,7.319 9.203,4.510 13.015,2.942 ZM3.197,12.427 C3.227,12.430 3.258,12.432 3.290,12.432 L7.662,12.432 C7.084,14.570 6.755,16.861 6.695,19.224 L1.584,19.224 C1.686,16.810 2.252,14.514 3.197,12.427 ZM3.197,27.588 C2.252,25.500 1.686,23.204 1.584,20.791 L6.695,20.791 C6.755,23.153 7.084,25.446 7.662,27.583 L3.290,27.583 C3.258,27.583 3.227,27.585 3.197,27.588 ZM3.996,29.149 L8.141,29.149 C8.746,30.924 9.530,32.569 10.482,34.029 C11.251,35.209 12.102,36.227 13.016,37.072 C9.203,35.505 6.027,32.695 3.996,29.149 ZM11.794,33.173 C11.003,31.960 10.336,30.607 9.801,29.149 L14.072,29.149 C14.645,32.691 15.564,35.782 16.806,37.753 C14.942,36.922 13.223,35.366 11.794,33.173 ZM16.614,33.373 C16.228,32.103 15.903,30.681 15.646,29.149 L24.354,29.149 C24.096,30.681 23.772,32.103 23.386,33.373 C22.248,37.115 20.890,38.448 20.000,38.448 C19.109,38.448 17.752,37.115 16.614,33.373 Z"/>
</svg>