<svg 
 xmlns="http://www.w3.org/2000/svg"
 xmlns:xlink="http://www.w3.org/1999/xlink"
 width="50px" height="61px">
<path fill-rule="evenodd"  fill="currentColor"
 d="M45.096,60.999 L4.904,60.999 C2.200,60.999 -0.000,58.789 -0.000,56.073 L-0.000,25.259 C-0.000,22.543 2.200,20.332 4.904,20.332 L12.312,20.332 C12.325,9.591 13.361,-0.001 25.001,-0.001 C36.640,-0.001 37.675,9.591 37.688,20.332 L45.096,20.332 C47.800,20.332 50.000,22.543 50.000,25.259 L50.000,56.073 C50.000,58.789 47.800,60.999 45.096,60.999 ZM25.001,1.936 C15.954,1.936 14.257,8.135 14.236,20.332 L35.764,20.332 C35.743,8.135 34.046,1.936 25.001,1.936 ZM48.077,25.259 C48.077,23.610 46.740,22.269 45.096,22.269 L4.904,22.269 C3.260,22.269 1.923,23.610 1.923,25.259 L1.923,56.073 C1.923,57.722 3.260,59.062 4.904,59.062 L45.096,59.062 C46.740,59.062 48.077,57.722 48.077,56.073 L48.077,25.259 ZM26.914,41.189 C26.920,41.233 26.939,41.271 26.939,41.316 L26.939,49.190 C26.939,49.725 26.509,50.158 25.977,50.158 C25.446,50.158 25.016,49.725 25.016,49.190 L25.016,41.316 C25.016,41.272 25.035,41.233 25.041,41.189 C23.337,40.766 22.068,39.226 22.068,37.380 C22.068,35.206 23.819,33.444 25.977,33.444 C28.135,33.444 29.887,35.206 29.887,37.380 C29.887,39.226 28.618,40.765 26.914,41.189 Z"/>
</svg>