<svg 
 xmlns="http://www.w3.org/2000/svg"
 xmlns:xlink="http://www.w3.org/1999/xlink"
 width="56px" height="40px">
<path fill-rule="evenodd"  fill="currentColor"
 d="M50.899,31.091 L49.135,29.321 C54.905,23.538 54.903,14.129 49.132,8.346 L50.899,6.575 C57.643,13.334 57.643,24.332 50.899,31.091 ZM47.845,9.636 L46.081,11.407 C50.164,15.503 50.164,22.166 46.081,26.260 L47.845,28.033 C52.905,22.959 52.905,14.708 47.845,9.636 ZM44.693,12.795 L42.927,14.564 C45.278,16.918 45.278,20.749 42.927,23.102 L44.694,24.873 C48.016,21.544 48.016,16.124 44.693,12.795 ZM5.058,31.091 L6.823,29.321 C1.054,23.538 1.055,14.129 6.826,8.346 L5.058,6.575 C-1.685,13.334 -1.685,24.332 5.058,31.091 ZM8.113,28.030 L9.878,26.260 C5.794,22.166 5.794,15.502 9.878,11.406 L8.113,9.635 C3.053,14.708 3.053,22.959 8.113,28.030 ZM11.264,24.873 L13.031,23.102 C10.682,20.749 10.682,16.918 13.032,14.564 L11.265,12.795 C7.940,16.124 7.940,21.544 11.264,24.873 ZM39.572,2.700 L39.572,37.299 C39.572,38.784 38.358,39.999 36.877,39.999 L19.085,39.999 C17.602,39.999 16.389,38.784 16.389,37.299 L16.389,2.700 C16.389,1.215 17.602,-0.001 19.085,-0.001 L36.877,-0.001 C38.358,-0.001 39.572,1.215 39.572,2.700 ZM24.806,2.274 C24.806,2.453 24.952,2.601 25.134,2.601 L30.824,2.601 C31.006,2.601 31.150,2.453 31.150,2.274 C31.150,2.092 31.006,1.946 30.824,1.946 L25.134,1.946 C24.953,1.946 24.806,2.092 24.806,2.274 ZM29.328,37.299 C29.328,36.552 28.724,35.947 27.979,35.947 C27.235,35.947 26.632,36.552 26.632,37.299 C26.632,38.044 27.235,38.647 27.979,38.647 C28.724,38.647 29.328,38.045 29.328,37.299 ZM37.696,4.283 L18.264,4.283 L18.264,34.999 L37.696,34.999 L37.696,4.283 Z"/>
</svg>