<svg 
 xmlns="http://www.w3.org/2000/svg"
 xmlns:xlink="http://www.w3.org/1999/xlink"
 width="41px" height="40px">
<path fill-rule="evenodd"  fill="currentColor"
 d="M41.000,16.004 L41.000,23.994 C41.000,24.989 40.520,25.868 39.785,26.440 C40.519,27.012 40.999,27.890 40.999,28.886 L40.999,36.875 C40.999,38.598 39.587,39.999 37.850,39.999 L3.149,39.999 C1.412,39.999 -0.000,38.598 -0.000,36.874 L-0.000,28.886 C-0.000,27.890 0.480,27.012 1.214,26.439 C0.480,25.868 -0.000,24.989 -0.000,23.993 L-0.000,16.004 C-0.000,15.009 0.480,14.131 1.214,13.558 C0.480,12.986 -0.000,12.108 -0.000,11.112 L-0.000,3.123 C-0.000,1.401 1.412,-0.001 3.149,-0.001 L37.851,-0.001 C39.587,-0.001 41.000,1.401 41.000,3.123 L41.000,11.113 C41.000,12.108 40.520,12.987 39.786,13.559 C40.520,14.131 41.000,15.009 41.000,16.004 ZM39.633,3.123 C39.633,2.149 38.834,1.355 37.850,1.355 L3.149,1.355 C2.166,1.355 1.367,2.149 1.367,3.123 L1.367,11.113 C1.367,12.087 2.166,12.881 3.149,12.881 L3.149,12.880 L37.851,12.880 C38.834,12.880 39.633,12.086 39.633,11.112 L39.633,3.123 ZM39.633,16.004 C39.633,15.029 38.834,14.237 37.850,14.237 L3.149,14.237 C2.166,14.237 1.367,15.029 1.367,16.004 L1.367,23.994 C1.367,24.969 2.166,25.762 3.149,25.761 L37.851,25.761 C38.834,25.761 39.633,24.968 39.633,23.993 L39.633,16.004 ZM39.633,28.886 C39.633,27.911 38.834,27.118 37.850,27.118 L3.149,27.118 C2.166,27.118 1.367,27.911 1.367,28.886 L1.367,36.875 C1.367,37.850 2.166,38.643 3.149,38.643 L37.851,38.643 C38.834,38.643 39.633,37.850 39.633,36.874 L39.633,28.886 ZM35.533,34.575 C35.156,34.575 34.850,34.271 34.850,33.897 C34.850,33.523 35.156,33.219 35.533,33.219 C35.911,33.219 36.217,33.523 36.217,33.897 C36.217,34.271 35.911,34.575 35.533,34.575 ZM34.167,32.542 C33.789,32.542 33.483,32.238 33.483,31.864 C33.483,31.489 33.789,31.185 34.167,31.185 C34.544,31.185 34.850,31.489 34.850,31.864 C34.850,32.238 34.544,32.542 34.167,32.542 ZM32.800,34.575 C32.423,34.575 32.117,34.271 32.117,33.897 C32.117,33.523 32.423,33.219 32.800,33.219 C33.177,33.219 33.483,33.523 33.483,33.897 C33.483,34.271 33.177,34.575 32.800,34.575 ZM31.433,32.542 C31.056,32.542 30.750,32.238 30.750,31.864 C30.750,31.489 31.056,31.185 31.433,31.185 C31.811,31.185 32.117,31.489 32.117,31.864 C32.117,32.238 31.811,32.542 31.433,32.542 ZM30.067,34.575 C29.689,34.575 29.383,34.271 29.383,33.897 C29.383,33.523 29.689,33.219 30.067,33.219 C30.444,33.219 30.750,33.523 30.750,33.897 C30.750,34.271 30.444,34.575 30.067,34.575 ZM28.700,32.542 C28.322,32.542 28.017,32.238 28.017,31.864 C28.017,31.489 28.322,31.185 28.700,31.185 C29.077,31.185 29.383,31.489 29.383,31.864 C29.383,32.238 29.077,32.542 28.700,32.542 ZM27.333,34.575 C26.956,34.575 26.650,34.271 26.650,33.897 C26.650,33.523 26.956,33.219 27.333,33.219 C27.711,33.219 28.017,33.523 28.017,33.897 C28.017,34.271 27.711,34.575 27.333,34.575 ZM25.967,32.542 C25.589,32.542 25.283,32.238 25.283,31.864 C25.283,31.489 25.589,31.185 25.967,31.185 C26.344,31.185 26.650,31.489 26.650,31.864 C26.650,32.238 26.344,32.542 25.967,32.542 ZM24.600,34.575 C24.223,34.575 23.917,34.271 23.917,33.897 C23.917,33.523 24.223,33.219 24.600,33.219 C24.977,33.219 25.283,33.523 25.283,33.897 C25.283,34.271 24.977,34.575 24.600,34.575 ZM23.233,32.542 C22.856,32.542 22.550,32.238 22.550,31.864 C22.550,31.489 22.856,31.185 23.233,31.185 C23.611,31.185 23.917,31.489 23.917,31.864 C23.917,32.238 23.611,32.542 23.233,32.542 ZM7.175,35.931 C5.480,35.931 4.100,34.562 4.100,32.880 C4.100,31.199 5.480,29.830 7.175,29.830 C8.870,29.830 10.250,31.199 10.250,32.880 C10.250,34.562 8.870,35.931 7.175,35.931 ZM7.175,31.185 C6.233,31.185 5.467,31.946 5.467,32.880 C5.467,33.815 6.233,34.575 7.175,34.575 C8.117,34.575 8.883,33.815 8.883,32.880 C8.883,31.946 8.117,31.185 7.175,31.185 ZM35.533,21.694 C35.156,21.694 34.850,21.390 34.850,21.016 C34.850,20.642 35.156,20.338 35.533,20.338 C35.911,20.338 36.217,20.642 36.217,21.016 C36.217,21.390 35.911,21.694 35.533,21.694 ZM34.167,19.660 C33.789,19.660 33.483,19.357 33.483,18.982 C33.483,18.608 33.789,18.305 34.167,18.305 C34.544,18.305 34.850,18.608 34.850,18.982 C34.850,19.357 34.544,19.660 34.167,19.660 ZM32.800,21.694 C32.423,21.694 32.117,21.390 32.117,21.016 C32.117,20.642 32.423,20.338 32.800,20.338 C33.177,20.338 33.483,20.642 33.483,21.016 C33.483,21.390 33.177,21.694 32.800,21.694 ZM31.433,19.660 C31.056,19.660 30.750,19.357 30.750,18.982 C30.750,18.608 31.056,18.305 31.433,18.305 C31.811,18.305 32.117,18.608 32.117,18.982 C32.117,19.357 31.811,19.660 31.433,19.660 ZM30.067,21.694 C29.689,21.694 29.383,21.390 29.383,21.016 C29.383,20.642 29.689,20.338 30.067,20.338 C30.444,20.338 30.750,20.642 30.750,21.016 C30.750,21.390 30.444,21.694 30.067,21.694 ZM28.700,19.660 C28.322,19.660 28.017,19.357 28.017,18.982 C28.017,18.608 28.322,18.305 28.700,18.305 C29.077,18.305 29.383,18.608 29.383,18.982 C29.383,19.357 29.077,19.660 28.700,19.660 ZM27.333,21.694 C26.956,21.694 26.650,21.390 26.650,21.016 C26.650,20.642 26.956,20.338 27.333,20.338 C27.711,20.338 28.017,20.642 28.017,21.016 C28.017,21.390 27.711,21.694 27.333,21.694 ZM25.967,19.660 C25.589,19.660 25.283,19.357 25.283,18.982 C25.283,18.608 25.589,18.305 25.967,18.305 C26.344,18.305 26.650,18.608 26.650,18.982 C26.650,19.357 26.344,19.660 25.967,19.660 ZM24.600,21.694 C24.223,21.694 23.917,21.390 23.917,21.016 C23.917,20.642 24.223,20.338 24.600,20.338 C24.977,20.338 25.283,20.642 25.283,21.016 C25.283,21.390 24.977,21.694 24.600,21.694 ZM23.233,19.660 C22.856,19.660 22.550,19.357 22.550,18.982 C22.550,18.608 22.856,18.305 23.233,18.305 C23.611,18.305 23.917,18.608 23.917,18.982 C23.917,19.357 23.611,19.660 23.233,19.660 ZM7.175,23.050 C5.480,23.050 4.100,21.682 4.100,19.999 C4.100,18.317 5.480,16.948 7.175,16.948 C8.870,16.948 10.250,18.317 10.250,19.999 C10.250,21.682 8.870,23.050 7.175,23.050 ZM7.175,18.305 C6.233,18.305 5.467,19.064 5.467,19.999 C5.467,20.934 6.233,21.694 7.175,21.694 C8.117,21.694 8.883,20.934 8.883,19.999 C8.883,19.064 8.117,18.305 7.175,18.305 ZM35.533,8.813 C35.156,8.813 34.850,8.510 34.850,8.135 C34.850,7.760 35.156,7.457 35.533,7.457 C35.911,7.457 36.217,7.760 36.217,8.135 C36.217,8.510 35.911,8.813 35.533,8.813 ZM34.167,6.779 C33.789,6.779 33.483,6.476 33.483,6.101 C33.483,5.727 33.789,5.423 34.167,5.423 C34.544,5.423 34.850,5.727 34.850,6.101 C34.850,6.476 34.544,6.779 34.167,6.779 ZM32.800,8.813 C32.423,8.813 32.117,8.510 32.117,8.135 C32.117,7.760 32.423,7.457 32.800,7.457 C33.177,7.457 33.483,7.760 33.483,8.135 C33.483,8.510 33.177,8.813 32.800,8.813 ZM31.433,6.779 C31.056,6.779 30.750,6.476 30.750,6.101 C30.750,5.727 31.056,5.423 31.433,5.423 C31.811,5.423 32.117,5.727 32.117,6.101 C32.117,6.476 31.811,6.779 31.433,6.779 ZM30.067,8.813 C29.689,8.813 29.383,8.510 29.383,8.135 C29.383,7.760 29.689,7.457 30.067,7.457 C30.444,7.457 30.750,7.760 30.750,8.135 C30.750,8.510 30.444,8.813 30.067,8.813 ZM28.700,6.779 C28.322,6.779 28.017,6.476 28.017,6.101 C28.017,5.727 28.322,5.423 28.700,5.423 C29.077,5.423 29.383,5.727 29.383,6.101 C29.383,6.476 29.077,6.779 28.700,6.779 ZM27.333,8.813 C26.956,8.813 26.650,8.510 26.650,8.135 C26.650,7.760 26.956,7.457 27.333,7.457 C27.711,7.457 28.017,7.760 28.017,8.135 C28.017,8.510 27.711,8.813 27.333,8.813 ZM25.967,6.779 C25.589,6.779 25.283,6.476 25.283,6.101 C25.283,5.727 25.589,5.423 25.967,5.423 C26.344,5.423 26.650,5.727 26.650,6.101 C26.650,6.476 26.344,6.779 25.967,6.779 ZM24.600,8.813 C24.223,8.813 23.917,8.510 23.917,8.135 C23.917,7.760 24.223,7.457 24.600,7.457 C24.977,7.457 25.283,7.760 25.283,8.135 C25.283,8.510 24.977,8.813 24.600,8.813 ZM23.233,6.779 C22.856,6.779 22.550,6.476 22.550,6.101 C22.550,5.727 22.856,5.423 23.233,5.423 C23.611,5.423 23.917,5.727 23.917,6.101 C23.917,6.476 23.611,6.779 23.233,6.779 ZM7.175,10.169 C5.480,10.169 4.100,8.800 4.100,7.118 C4.100,5.436 5.480,4.067 7.175,4.067 C8.870,4.067 10.250,5.436 10.250,7.118 C10.250,8.800 8.870,10.169 7.175,10.169 ZM7.175,5.423 C6.233,5.423 5.467,6.183 5.467,7.118 C5.467,8.053 6.233,8.813 7.175,8.813 C8.117,8.813 8.883,8.053 8.883,7.118 C8.883,6.183 8.117,5.423 7.175,5.423 Z"/>
</svg>