<svg 
 xmlns="http://www.w3.org/2000/svg"
 xmlns:xlink="http://www.w3.org/1999/xlink"
 width="49px" height="50px">
<path fill-rule="evenodd"  fill="currentColor"
 d="M35.062,14.433 L41.351,20.693 L42.465,20.693 L49.000,14.186 L49.000,13.077 L35.865,-0.001 L29.074,-0.001 L25.378,3.681 L25.378,4.791 L33.948,13.323 L22.223,24.997 L9.017,11.849 C9.576,11.286 9.854,10.511 9.777,9.719 C9.699,8.923 9.270,8.211 8.601,7.766 L4.953,5.345 C3.899,4.645 2.480,4.783 1.573,5.684 L1.483,5.773 C0.585,6.667 0.445,8.079 1.149,9.133 L3.581,12.762 C4.026,13.429 4.742,13.856 5.542,13.935 C5.631,13.943 5.719,13.947 5.807,13.947 C6.513,13.947 7.190,13.671 7.696,13.168 L7.904,12.960 L21.108,26.106 L0.231,46.891 C-0.077,47.198 -0.077,47.695 0.231,48.001 C0.385,48.154 0.587,48.231 0.788,48.231 C0.990,48.231 1.192,48.154 1.346,48.001 L22.223,27.216 L27.326,32.296 L25.492,34.123 L25.492,35.233 L40.324,49.999 L41.439,49.999 L46.002,45.456 L46.002,44.346 L31.169,29.580 L30.055,29.580 L28.441,31.187 L23.338,26.106 L35.062,14.433 ZM29.727,1.569 L35.212,1.569 L47.328,13.632 L41.908,19.028 L27.050,4.236 L29.727,1.569 ZM5.697,12.373 C5.369,12.341 5.076,12.165 4.892,11.891 L2.461,8.262 C2.172,7.830 2.230,7.250 2.584,6.897 L2.695,6.788 C2.906,6.578 3.188,6.469 3.471,6.469 C3.682,6.469 3.893,6.528 4.078,6.652 L7.725,9.071 C8.000,9.254 8.176,9.546 8.208,9.872 C8.240,10.200 8.125,10.521 7.891,10.753 L6.582,12.058 C6.348,12.291 6.025,12.409 5.697,12.373 ZM30.612,31.245 L44.330,44.901 L40.882,48.335 L27.164,34.678 L30.612,31.245 Z"/>
</svg>