<svg 
 xmlns="http://www.w3.org/2000/svg"
 xmlns:xlink="http://www.w3.org/1999/xlink"
 width="39px" height="40px">
<path fill-rule="evenodd"  fill="currentColor"
 d="M36.686,37.705 L36.315,37.705 L36.315,39.217 C36.315,39.649 35.971,39.999 35.546,39.999 C35.121,39.999 34.777,39.649 34.777,39.217 L34.777,37.705 L4.223,37.705 L4.223,39.217 C4.223,39.649 3.878,39.999 3.454,39.999 C3.029,39.999 2.685,39.649 2.685,39.217 L2.685,37.705 L2.314,37.705 C1.038,37.705 -0.000,36.650 -0.000,35.352 L-0.000,8.878 C-0.000,7.581 1.038,6.525 2.314,6.525 L14.586,6.525 C14.682,5.904 14.890,5.320 15.186,4.796 L4.941,1.530 C4.536,1.401 4.310,0.962 4.437,0.550 C4.564,0.138 4.995,-0.092 5.401,0.038 L16.241,3.492 C17.114,2.719 18.254,2.250 19.500,2.250 C20.746,2.250 21.885,2.719 22.758,3.492 L33.599,0.038 C34.004,-0.092 34.435,0.138 34.562,0.550 C34.689,0.961 34.464,1.401 34.058,1.530 L23.813,4.796 C24.110,5.320 24.317,5.904 24.413,6.525 L36.686,6.525 C37.962,6.525 39.000,7.581 39.000,8.878 L39.000,35.352 C39.000,36.650 37.962,37.705 36.686,37.705 ZM19.500,3.814 C17.870,3.814 16.503,4.975 16.153,6.525 L22.847,6.525 C22.496,4.974 21.129,3.814 19.500,3.814 ZM37.462,35.352 L37.462,8.878 C37.462,8.444 37.114,8.090 36.686,8.090 L2.314,8.090 C1.886,8.090 1.538,8.444 1.538,8.878 L1.538,35.352 C1.538,35.787 1.886,36.141 2.314,36.141 L36.686,36.141 C37.114,36.141 37.462,35.787 37.462,35.352 L37.462,35.352 ZM36.040,35.410 C35.719,35.394 35.436,35.169 35.342,34.856 C35.136,34.167 35.915,33.584 36.505,33.979 C36.795,34.173 36.919,34.561 36.802,34.893 C36.688,35.212 36.375,35.427 36.040,35.410 ZM34.718,33.334 C29.669,33.766 24.584,33.983 19.500,33.983 C14.415,33.983 9.331,33.766 4.282,33.334 C3.932,33.304 3.647,33.038 3.588,32.687 C2.367,25.430 2.367,18.070 3.588,10.814 C3.647,10.463 3.932,10.196 4.282,10.166 C14.380,9.302 24.620,9.302 34.718,10.166 C35.068,10.196 35.353,10.463 35.412,10.814 C36.633,18.070 36.633,25.430 35.412,32.687 C35.353,33.038 35.067,33.304 34.718,33.334 ZM33.994,11.675 C24.373,10.885 14.627,10.885 5.006,11.675 C3.945,18.364 3.945,25.137 5.006,31.825 C14.627,32.615 24.373,32.615 33.994,31.825 C35.055,25.137 35.055,18.364 33.994,11.675 ZM32.692,27.528 C32.671,27.528 32.650,27.528 32.629,27.526 C32.205,27.490 31.890,27.113 31.925,26.682 C32.146,23.941 32.183,21.160 32.033,18.417 C32.010,17.985 32.334,17.616 32.758,17.592 C33.184,17.569 33.545,17.898 33.569,18.330 C33.722,21.144 33.685,23.998 33.458,26.810 C33.425,27.218 33.088,27.528 32.692,27.528 ZM32.687,16.645 C32.662,16.647 32.637,16.648 32.613,16.648 C32.221,16.648 31.887,16.346 31.848,15.942 C31.774,15.160 31.683,14.368 31.578,13.587 C31.521,13.159 31.816,12.765 32.236,12.707 C32.656,12.648 33.045,12.948 33.102,13.376 C33.210,14.177 33.303,14.989 33.379,15.791 C33.420,16.221 33.110,16.604 32.687,16.645 Z"/>
</svg>