<svg 
 xmlns="http://www.w3.org/2000/svg"
 xmlns:xlink="http://www.w3.org/1999/xlink"
 width="51px" height="45px">
<path fill-rule="evenodd"  fill="currentColor"
 d="M49.795,44.999 L1.205,44.999 C0.539,44.999 -0.000,44.457 -0.000,43.788 C-0.000,43.120 0.539,42.578 1.205,42.578 L49.795,42.578 C50.461,42.578 51.000,43.120 51.000,43.788 C51.000,44.457 50.460,44.999 49.795,44.999 ZM46.654,38.215 L38.192,38.215 L29.731,38.215 L21.269,38.215 L12.807,38.215 L4.346,38.215 C3.680,38.215 3.141,37.673 3.141,37.004 L3.141,13.827 C3.141,13.159 3.680,12.616 4.346,12.616 L12.807,12.616 C13.472,12.616 14.012,13.159 14.012,13.827 L14.012,24.118 L20.064,24.118 L20.064,1.209 C20.064,0.541 20.604,-0.001 21.269,-0.001 L29.731,-0.001 C30.396,-0.001 30.936,0.541 30.936,1.209 L30.936,15.157 L36.987,15.157 L36.987,6.925 C36.987,6.257 37.527,5.715 38.192,5.715 L46.654,5.715 C47.319,5.715 47.859,6.257 47.859,6.925 L47.859,37.004 C47.859,37.673 47.319,38.215 46.654,38.215 ZM11.602,15.038 L5.550,15.038 L5.550,35.793 L11.602,35.793 L11.602,15.038 ZM20.064,26.540 L14.012,26.540 L14.012,35.793 L20.064,35.793 L20.064,26.540 ZM28.526,16.368 L28.526,2.421 L22.474,2.421 L22.474,35.793 L28.526,35.793 L28.526,16.368 ZM36.988,17.577 L30.936,17.577 L30.936,35.793 L36.988,35.793 L36.988,17.577 ZM45.449,8.136 L39.397,8.136 L39.397,16.368 L39.397,35.793 L45.449,35.793 L45.449,35.793 L45.449,8.136 Z"/>
</svg>